<mxfile host="app.diagrams.net" modified="2023-11-30T19:17:27.149Z" agent="Mozilla/5.0 (Windows NT 10.0; Win64; x64) AppleWebKit/537.36 (KHTML, like Gecko) Chrome/119.0.0.0 Safari/537.36" etag="l5_fEgnEyR7grWb8r5Zl" version="22.1.5" type="device">
  <diagram name="Page-1" id="irZQBJdY_SLZTEjegize">
    <mxGraphModel dx="677" dy="1516" grid="1" gridSize="10" guides="1" tooltips="1" connect="1" arrows="1" fold="1" page="1" pageScale="1" pageWidth="850" pageHeight="1100" math="0" shadow="0">
      <root>
        <mxCell id="0" />
        <mxCell id="1" parent="0" />
        <mxCell id="iQG19KCkYfJU7SetR6nb-1" value="Assign Task" style="ellipse;whiteSpace=wrap;html=1;fontSize=16;" vertex="1" parent="1">
          <mxGeometry x="250" y="-1100" width="150" height="80" as="geometry" />
        </mxCell>
        <mxCell id="iQG19KCkYfJU7SetR6nb-2" value="Payment" style="ellipse;whiteSpace=wrap;html=1;fontSize=16;" vertex="1" parent="1">
          <mxGeometry x="250" y="-990" width="150" height="80" as="geometry" />
        </mxCell>
        <mxCell id="iQG19KCkYfJU7SetR6nb-3" value="Review Freelancer" style="ellipse;whiteSpace=wrap;html=1;fontSize=16;" vertex="1" parent="1">
          <mxGeometry x="250" y="-880" width="150" height="80" as="geometry" />
        </mxCell>
        <mxCell id="iQG19KCkYfJU7SetR6nb-4" value="Communication" style="ellipse;whiteSpace=wrap;html=1;fontSize=16;" vertex="1" parent="1">
          <mxGeometry x="250" y="-760" width="150" height="80" as="geometry" />
        </mxCell>
        <mxCell id="iQG19KCkYfJU7SetR6nb-5" value="Rate Freelancer" style="ellipse;whiteSpace=wrap;html=1;fontSize=16;" vertex="1" parent="1">
          <mxGeometry x="250" y="-640" width="150" height="80" as="geometry" />
        </mxCell>
        <mxCell id="iQG19KCkYfJU7SetR6nb-25" style="edgeStyle=orthogonalEdgeStyle;rounded=0;orthogonalLoop=1;jettySize=auto;html=1;exitX=0.25;exitY=0.1;exitDx=0;exitDy=0;exitPerimeter=0;entryX=0;entryY=0.5;entryDx=0;entryDy=0;" edge="1" parent="1" source="iQG19KCkYfJU7SetR6nb-16" target="iQG19KCkYfJU7SetR6nb-1">
          <mxGeometry relative="1" as="geometry" />
        </mxCell>
        <mxCell id="iQG19KCkYfJU7SetR6nb-28" style="edgeStyle=orthogonalEdgeStyle;rounded=0;orthogonalLoop=1;jettySize=auto;html=1;exitX=0.75;exitY=0.1;exitDx=0;exitDy=0;exitPerimeter=0;entryX=0;entryY=0.5;entryDx=0;entryDy=0;" edge="1" parent="1" source="iQG19KCkYfJU7SetR6nb-16" target="iQG19KCkYfJU7SetR6nb-2">
          <mxGeometry relative="1" as="geometry" />
        </mxCell>
        <mxCell id="iQG19KCkYfJU7SetR6nb-29" style="edgeStyle=orthogonalEdgeStyle;rounded=0;orthogonalLoop=1;jettySize=auto;html=1;exitX=0.75;exitY=0.1;exitDx=0;exitDy=0;exitPerimeter=0;" edge="1" parent="1" source="iQG19KCkYfJU7SetR6nb-16" target="iQG19KCkYfJU7SetR6nb-3">
          <mxGeometry relative="1" as="geometry" />
        </mxCell>
        <mxCell id="iQG19KCkYfJU7SetR6nb-30" style="edgeStyle=orthogonalEdgeStyle;rounded=0;orthogonalLoop=1;jettySize=auto;html=1;exitX=0.75;exitY=0.1;exitDx=0;exitDy=0;exitPerimeter=0;entryX=0;entryY=0.5;entryDx=0;entryDy=0;" edge="1" parent="1" source="iQG19KCkYfJU7SetR6nb-16" target="iQG19KCkYfJU7SetR6nb-4">
          <mxGeometry relative="1" as="geometry" />
        </mxCell>
        <mxCell id="iQG19KCkYfJU7SetR6nb-31" style="edgeStyle=orthogonalEdgeStyle;rounded=0;orthogonalLoop=1;jettySize=auto;html=1;exitX=0.75;exitY=0.1;exitDx=0;exitDy=0;exitPerimeter=0;entryX=0;entryY=0.5;entryDx=0;entryDy=0;" edge="1" parent="1" source="iQG19KCkYfJU7SetR6nb-16" target="iQG19KCkYfJU7SetR6nb-5">
          <mxGeometry relative="1" as="geometry" />
        </mxCell>
        <mxCell id="iQG19KCkYfJU7SetR6nb-32" style="edgeStyle=orthogonalEdgeStyle;rounded=0;orthogonalLoop=1;jettySize=auto;html=1;exitX=0.75;exitY=0.1;exitDx=0;exitDy=0;exitPerimeter=0;entryX=0;entryY=0.5;entryDx=0;entryDy=0;" edge="1" parent="1" source="iQG19KCkYfJU7SetR6nb-16" target="iQG19KCkYfJU7SetR6nb-17">
          <mxGeometry relative="1" as="geometry">
            <Array as="points">
              <mxPoint x="200" y="-873" />
              <mxPoint x="200" y="-1010" />
            </Array>
          </mxGeometry>
        </mxCell>
        <mxCell id="iQG19KCkYfJU7SetR6nb-33" style="edgeStyle=orthogonalEdgeStyle;rounded=0;orthogonalLoop=1;jettySize=auto;html=1;exitX=0.75;exitY=0.1;exitDx=0;exitDy=0;exitPerimeter=0;" edge="1" parent="1" source="iQG19KCkYfJU7SetR6nb-16" target="iQG19KCkYfJU7SetR6nb-18">
          <mxGeometry relative="1" as="geometry">
            <Array as="points">
              <mxPoint x="200" y="-873" />
              <mxPoint x="200" y="-900" />
            </Array>
          </mxGeometry>
        </mxCell>
        <mxCell id="iQG19KCkYfJU7SetR6nb-34" style="edgeStyle=orthogonalEdgeStyle;rounded=0;orthogonalLoop=1;jettySize=auto;html=1;exitX=0.75;exitY=0.1;exitDx=0;exitDy=0;exitPerimeter=0;" edge="1" parent="1" source="iQG19KCkYfJU7SetR6nb-16" target="iQG19KCkYfJU7SetR6nb-19">
          <mxGeometry relative="1" as="geometry">
            <Array as="points">
              <mxPoint x="200" y="-873" />
              <mxPoint x="200" y="-780" />
            </Array>
          </mxGeometry>
        </mxCell>
        <mxCell id="iQG19KCkYfJU7SetR6nb-35" style="edgeStyle=orthogonalEdgeStyle;rounded=0;orthogonalLoop=1;jettySize=auto;html=1;exitX=0.75;exitY=0.1;exitDx=0;exitDy=0;exitPerimeter=0;entryX=0;entryY=0.5;entryDx=0;entryDy=0;" edge="1" parent="1" source="iQG19KCkYfJU7SetR6nb-16" target="iQG19KCkYfJU7SetR6nb-20">
          <mxGeometry relative="1" as="geometry">
            <Array as="points">
              <mxPoint x="200" y="-873" />
              <mxPoint x="200" y="-660" />
              <mxPoint x="430" y="-660" />
            </Array>
          </mxGeometry>
        </mxCell>
        <mxCell id="iQG19KCkYfJU7SetR6nb-36" style="edgeStyle=orthogonalEdgeStyle;rounded=0;orthogonalLoop=1;jettySize=auto;html=1;exitX=0.75;exitY=0.1;exitDx=0;exitDy=0;exitPerimeter=0;entryX=0;entryY=0.5;entryDx=0;entryDy=0;" edge="1" parent="1" source="iQG19KCkYfJU7SetR6nb-16" target="iQG19KCkYfJU7SetR6nb-21">
          <mxGeometry relative="1" as="geometry">
            <Array as="points">
              <mxPoint x="200" y="-873" />
              <mxPoint x="200" y="-540" />
              <mxPoint x="430" y="-540" />
            </Array>
          </mxGeometry>
        </mxCell>
        <mxCell id="iQG19KCkYfJU7SetR6nb-77" style="edgeStyle=orthogonalEdgeStyle;rounded=0;orthogonalLoop=1;jettySize=auto;html=1;exitX=0.75;exitY=0.1;exitDx=0;exitDy=0;exitPerimeter=0;entryX=0;entryY=0.5;entryDx=0;entryDy=0;" edge="1" parent="1" source="iQG19KCkYfJU7SetR6nb-16" target="iQG19KCkYfJU7SetR6nb-75">
          <mxGeometry relative="1" as="geometry">
            <mxPoint x="380" y="-430" as="targetPoint" />
            <Array as="points">
              <mxPoint x="200" y="-873" />
              <mxPoint x="200" y="-430" />
            </Array>
          </mxGeometry>
        </mxCell>
        <mxCell id="iQG19KCkYfJU7SetR6nb-16" value="CLIENT" style="shape=umlActor;verticalLabelPosition=bottom;verticalAlign=top;html=1;outlineConnect=0;" vertex="1" parent="1">
          <mxGeometry x="100" y="-880" width="50" height="70" as="geometry" />
        </mxCell>
        <mxCell id="iQG19KCkYfJU7SetR6nb-17" value="&amp;nbsp;Login" style="ellipse;whiteSpace=wrap;html=1;fontSize=16;" vertex="1" parent="1">
          <mxGeometry x="425" y="-1050" width="150" height="80" as="geometry" />
        </mxCell>
        <mxCell id="iQG19KCkYfJU7SetR6nb-18" value="Assign Task" style="ellipse;whiteSpace=wrap;html=1;fontSize=16;" vertex="1" parent="1">
          <mxGeometry x="440" y="-940" width="150" height="80" as="geometry" />
        </mxCell>
        <mxCell id="iQG19KCkYfJU7SetR6nb-19" value="Assign Project" style="ellipse;whiteSpace=wrap;html=1;fontSize=16;" vertex="1" parent="1">
          <mxGeometry x="440" y="-820" width="150" height="80" as="geometry" />
        </mxCell>
        <mxCell id="iQG19KCkYfJU7SetR6nb-20" value="View Freelancer Profile" style="ellipse;whiteSpace=wrap;html=1;fontSize=16;" vertex="1" parent="1">
          <mxGeometry x="430" y="-700" width="150" height="80" as="geometry" />
        </mxCell>
        <mxCell id="iQG19KCkYfJU7SetR6nb-21" value="LogOut" style="ellipse;whiteSpace=wrap;html=1;fontSize=16;" vertex="1" parent="1">
          <mxGeometry x="430" y="-580" width="150" height="80" as="geometry" />
        </mxCell>
        <mxCell id="iQG19KCkYfJU7SetR6nb-38" value="User Login Authentication" style="ellipse;whiteSpace=wrap;html=1;fontSize=16;" vertex="1" parent="1">
          <mxGeometry x="700" y="-1100" width="150" height="80" as="geometry" />
        </mxCell>
        <mxCell id="iQG19KCkYfJU7SetR6nb-48" style="edgeStyle=orthogonalEdgeStyle;rounded=0;orthogonalLoop=1;jettySize=auto;html=1;exitX=0;exitY=0.3333333333333333;exitDx=0;exitDy=0;exitPerimeter=0;entryX=1;entryY=0.5;entryDx=0;entryDy=0;" edge="1" parent="1" source="iQG19KCkYfJU7SetR6nb-40" target="iQG19KCkYfJU7SetR6nb-38">
          <mxGeometry relative="1" as="geometry">
            <Array as="points">
              <mxPoint x="1045" y="-847" />
              <mxPoint x="1045" y="-840" />
              <mxPoint x="935" y="-840" />
              <mxPoint x="935" y="-1060" />
            </Array>
          </mxGeometry>
        </mxCell>
        <mxCell id="iQG19KCkYfJU7SetR6nb-49" style="edgeStyle=orthogonalEdgeStyle;rounded=0;orthogonalLoop=1;jettySize=auto;html=1;exitX=0;exitY=0.3333333333333333;exitDx=0;exitDy=0;exitPerimeter=0;entryX=1;entryY=0.5;entryDx=0;entryDy=0;" edge="1" parent="1" source="iQG19KCkYfJU7SetR6nb-40" target="iQG19KCkYfJU7SetR6nb-42">
          <mxGeometry relative="1" as="geometry">
            <Array as="points">
              <mxPoint x="1045" y="-847" />
              <mxPoint x="1045" y="-840" />
              <mxPoint x="935" y="-840" />
              <mxPoint x="935" y="-950" />
            </Array>
          </mxGeometry>
        </mxCell>
        <mxCell id="iQG19KCkYfJU7SetR6nb-50" style="edgeStyle=orthogonalEdgeStyle;rounded=0;orthogonalLoop=1;jettySize=auto;html=1;exitX=0;exitY=0.3333333333333333;exitDx=0;exitDy=0;exitPerimeter=0;entryX=1;entryY=0.5;entryDx=0;entryDy=0;" edge="1" parent="1" source="iQG19KCkYfJU7SetR6nb-40" target="iQG19KCkYfJU7SetR6nb-43">
          <mxGeometry relative="1" as="geometry">
            <Array as="points">
              <mxPoint x="1045" y="-847" />
              <mxPoint x="1045" y="-840" />
            </Array>
          </mxGeometry>
        </mxCell>
        <mxCell id="iQG19KCkYfJU7SetR6nb-51" style="edgeStyle=orthogonalEdgeStyle;rounded=0;orthogonalLoop=1;jettySize=auto;html=1;exitX=0;exitY=0.3333333333333333;exitDx=0;exitDy=0;exitPerimeter=0;entryX=1;entryY=0.5;entryDx=0;entryDy=0;" edge="1" parent="1" source="iQG19KCkYfJU7SetR6nb-40" target="iQG19KCkYfJU7SetR6nb-44">
          <mxGeometry relative="1" as="geometry">
            <Array as="points">
              <mxPoint x="1045" y="-847" />
              <mxPoint x="1045" y="-840" />
              <mxPoint x="935" y="-840" />
              <mxPoint x="935" y="-720" />
            </Array>
          </mxGeometry>
        </mxCell>
        <mxCell id="iQG19KCkYfJU7SetR6nb-52" style="edgeStyle=orthogonalEdgeStyle;rounded=0;orthogonalLoop=1;jettySize=auto;html=1;exitX=0;exitY=0.3333333333333333;exitDx=0;exitDy=0;exitPerimeter=0;entryX=1;entryY=0.5;entryDx=0;entryDy=0;" edge="1" parent="1" source="iQG19KCkYfJU7SetR6nb-40" target="iQG19KCkYfJU7SetR6nb-45">
          <mxGeometry relative="1" as="geometry">
            <Array as="points">
              <mxPoint x="1045" y="-847" />
              <mxPoint x="1045" y="-840" />
              <mxPoint x="935" y="-840" />
              <mxPoint x="935" y="-600" />
            </Array>
          </mxGeometry>
        </mxCell>
        <mxCell id="iQG19KCkYfJU7SetR6nb-53" style="edgeStyle=orthogonalEdgeStyle;rounded=0;orthogonalLoop=1;jettySize=auto;html=1;exitX=0;exitY=0.3333333333333333;exitDx=0;exitDy=0;exitPerimeter=0;entryX=1;entryY=0.5;entryDx=0;entryDy=0;" edge="1" parent="1" source="iQG19KCkYfJU7SetR6nb-40" target="iQG19KCkYfJU7SetR6nb-47">
          <mxGeometry relative="1" as="geometry">
            <Array as="points">
              <mxPoint x="1045" y="-847" />
              <mxPoint x="1045" y="-840" />
              <mxPoint x="935" y="-840" />
              <mxPoint x="935" y="-480" />
            </Array>
          </mxGeometry>
        </mxCell>
        <mxCell id="iQG19KCkYfJU7SetR6nb-58" style="edgeStyle=orthogonalEdgeStyle;rounded=0;orthogonalLoop=1;jettySize=auto;html=1;exitX=0.5;exitY=0.5;exitDx=0;exitDy=0;exitPerimeter=0;entryX=1;entryY=0.5;entryDx=0;entryDy=0;" edge="1" parent="1" source="iQG19KCkYfJU7SetR6nb-40" target="iQG19KCkYfJU7SetR6nb-21">
          <mxGeometry relative="1" as="geometry">
            <Array as="points">
              <mxPoint x="1045" y="-840" />
              <mxPoint x="1010" y="-840" />
              <mxPoint x="1010" y="-540" />
            </Array>
          </mxGeometry>
        </mxCell>
        <mxCell id="iQG19KCkYfJU7SetR6nb-59" style="edgeStyle=orthogonalEdgeStyle;rounded=0;orthogonalLoop=1;jettySize=auto;html=1;exitX=0.5;exitY=0.5;exitDx=0;exitDy=0;exitPerimeter=0;entryX=1;entryY=0.5;entryDx=0;entryDy=0;" edge="1" parent="1" source="iQG19KCkYfJU7SetR6nb-40" target="iQG19KCkYfJU7SetR6nb-17">
          <mxGeometry relative="1" as="geometry">
            <Array as="points">
              <mxPoint x="1045" y="-840" />
              <mxPoint x="1010" y="-840" />
              <mxPoint x="1010" y="-1010" />
            </Array>
          </mxGeometry>
        </mxCell>
        <mxCell id="iQG19KCkYfJU7SetR6nb-40" value="ADMIN" style="shape=umlActor;verticalLabelPosition=bottom;verticalAlign=top;html=1;outlineConnect=0;" vertex="1" parent="1">
          <mxGeometry x="1020" y="-870" width="50" height="70" as="geometry" />
        </mxCell>
        <mxCell id="iQG19KCkYfJU7SetR6nb-42" value="Approved Registration" style="ellipse;whiteSpace=wrap;html=1;fontSize=16;" vertex="1" parent="1">
          <mxGeometry x="700" y="-990" width="150" height="80" as="geometry" />
        </mxCell>
        <mxCell id="iQG19KCkYfJU7SetR6nb-43" value="Client Dashboard" style="ellipse;whiteSpace=wrap;html=1;fontSize=16;" vertex="1" parent="1">
          <mxGeometry x="700" y="-880" width="150" height="80" as="geometry" />
        </mxCell>
        <mxCell id="iQG19KCkYfJU7SetR6nb-44" value="FreeLancer Dashboard" style="ellipse;whiteSpace=wrap;html=1;fontSize=16;" vertex="1" parent="1">
          <mxGeometry x="700" y="-760" width="150" height="80" as="geometry" />
        </mxCell>
        <mxCell id="iQG19KCkYfJU7SetR6nb-45" value="Admin Dashboard" style="ellipse;whiteSpace=wrap;html=1;fontSize=16;" vertex="1" parent="1">
          <mxGeometry x="700" y="-640" width="150" height="80" as="geometry" />
        </mxCell>
        <mxCell id="iQG19KCkYfJU7SetR6nb-47" value="View Earning" style="ellipse;whiteSpace=wrap;html=1;fontSize=16;" vertex="1" parent="1">
          <mxGeometry x="700" y="-520" width="150" height="80" as="geometry" />
        </mxCell>
        <mxCell id="iQG19KCkYfJU7SetR6nb-68" style="edgeStyle=orthogonalEdgeStyle;rounded=0;orthogonalLoop=1;jettySize=auto;html=1;exitX=0.5;exitY=0;exitDx=0;exitDy=0;exitPerimeter=0;" edge="1" parent="1" source="iQG19KCkYfJU7SetR6nb-61">
          <mxGeometry relative="1" as="geometry">
            <mxPoint x="420" y="-1010" as="targetPoint" />
            <Array as="points">
              <mxPoint x="125" y="-95" />
              <mxPoint x="70" y="-95" />
              <mxPoint x="70" y="-1010" />
            </Array>
          </mxGeometry>
        </mxCell>
        <mxCell id="iQG19KCkYfJU7SetR6nb-69" style="edgeStyle=orthogonalEdgeStyle;rounded=0;orthogonalLoop=1;jettySize=auto;html=1;exitX=0.5;exitY=0.5;exitDx=0;exitDy=0;exitPerimeter=0;entryX=0;entryY=0.5;entryDx=0;entryDy=0;" edge="1" parent="1" source="iQG19KCkYfJU7SetR6nb-61" target="iQG19KCkYfJU7SetR6nb-21">
          <mxGeometry relative="1" as="geometry">
            <Array as="points">
              <mxPoint x="70" y="-95" />
              <mxPoint x="70" y="-500" />
              <mxPoint x="430" y="-500" />
            </Array>
          </mxGeometry>
        </mxCell>
        <mxCell id="iQG19KCkYfJU7SetR6nb-79" style="edgeStyle=orthogonalEdgeStyle;rounded=0;orthogonalLoop=1;jettySize=auto;html=1;exitX=1;exitY=0.3333333333333333;exitDx=0;exitDy=0;exitPerimeter=0;entryX=0;entryY=0.5;entryDx=0;entryDy=0;" edge="1" parent="1" source="iQG19KCkYfJU7SetR6nb-61" target="iQG19KCkYfJU7SetR6nb-70">
          <mxGeometry relative="1" as="geometry" />
        </mxCell>
        <mxCell id="iQG19KCkYfJU7SetR6nb-80" style="edgeStyle=orthogonalEdgeStyle;rounded=0;orthogonalLoop=1;jettySize=auto;html=1;exitX=1;exitY=0.3333333333333333;exitDx=0;exitDy=0;exitPerimeter=0;entryX=0;entryY=0.5;entryDx=0;entryDy=0;" edge="1" parent="1" source="iQG19KCkYfJU7SetR6nb-61" target="iQG19KCkYfJU7SetR6nb-71">
          <mxGeometry relative="1" as="geometry">
            <mxPoint x="220" y="-180" as="targetPoint" />
          </mxGeometry>
        </mxCell>
        <mxCell id="iQG19KCkYfJU7SetR6nb-81" style="edgeStyle=orthogonalEdgeStyle;rounded=0;orthogonalLoop=1;jettySize=auto;html=1;exitX=1;exitY=0.3333333333333333;exitDx=0;exitDy=0;exitPerimeter=0;entryX=0;entryY=0.5;entryDx=0;entryDy=0;" edge="1" parent="1" source="iQG19KCkYfJU7SetR6nb-61" target="iQG19KCkYfJU7SetR6nb-72">
          <mxGeometry relative="1" as="geometry" />
        </mxCell>
        <mxCell id="iQG19KCkYfJU7SetR6nb-82" style="edgeStyle=orthogonalEdgeStyle;rounded=0;orthogonalLoop=1;jettySize=auto;html=1;exitX=1;exitY=0.3333333333333333;exitDx=0;exitDy=0;exitPerimeter=0;entryX=0;entryY=0.5;entryDx=0;entryDy=0;" edge="1" parent="1" source="iQG19KCkYfJU7SetR6nb-61" target="iQG19KCkYfJU7SetR6nb-73">
          <mxGeometry relative="1" as="geometry" />
        </mxCell>
        <mxCell id="iQG19KCkYfJU7SetR6nb-83" style="edgeStyle=orthogonalEdgeStyle;rounded=0;orthogonalLoop=1;jettySize=auto;html=1;exitX=1;exitY=0.3333333333333333;exitDx=0;exitDy=0;exitPerimeter=0;entryX=0;entryY=0.5;entryDx=0;entryDy=0;" edge="1" parent="1" source="iQG19KCkYfJU7SetR6nb-61" target="iQG19KCkYfJU7SetR6nb-74">
          <mxGeometry relative="1" as="geometry" />
        </mxCell>
        <mxCell id="iQG19KCkYfJU7SetR6nb-61" value="FREELANCER" style="shape=umlActor;verticalLabelPosition=bottom;verticalAlign=top;html=1;outlineConnect=0;" vertex="1" parent="1">
          <mxGeometry x="100" y="-130" width="50" height="70" as="geometry" />
        </mxCell>
        <mxCell id="iQG19KCkYfJU7SetR6nb-70" value="LogOut" style="ellipse;whiteSpace=wrap;html=1;fontSize=16;" vertex="1" parent="1">
          <mxGeometry x="250" y="-350" width="150" height="80" as="geometry" />
        </mxCell>
        <mxCell id="iQG19KCkYfJU7SetR6nb-71" value="LogOut" style="ellipse;whiteSpace=wrap;html=1;fontSize=16;" vertex="1" parent="1">
          <mxGeometry x="250" y="-230" width="150" height="80" as="geometry" />
        </mxCell>
        <mxCell id="iQG19KCkYfJU7SetR6nb-72" value="LogOut" style="ellipse;whiteSpace=wrap;html=1;fontSize=16;" vertex="1" parent="1">
          <mxGeometry x="250" y="-110" width="150" height="80" as="geometry" />
        </mxCell>
        <mxCell id="iQG19KCkYfJU7SetR6nb-73" value="LogOut" style="ellipse;whiteSpace=wrap;html=1;fontSize=16;" vertex="1" parent="1">
          <mxGeometry x="250" y="10" width="150" height="80" as="geometry" />
        </mxCell>
        <mxCell id="iQG19KCkYfJU7SetR6nb-74" value="LogOut" style="ellipse;whiteSpace=wrap;html=1;fontSize=16;" vertex="1" parent="1">
          <mxGeometry x="250" y="130" width="150" height="80" as="geometry" />
        </mxCell>
        <mxCell id="iQG19KCkYfJU7SetR6nb-75" value="Register" style="ellipse;whiteSpace=wrap;html=1;fontSize=16;" vertex="1" parent="1">
          <mxGeometry x="440" y="-470" width="150" height="80" as="geometry" />
        </mxCell>
        <mxCell id="iQG19KCkYfJU7SetR6nb-76" style="edgeStyle=orthogonalEdgeStyle;rounded=0;orthogonalLoop=1;jettySize=auto;html=1;exitX=0.5;exitY=0.5;exitDx=0;exitDy=0;exitPerimeter=0;" edge="1" parent="1" source="iQG19KCkYfJU7SetR6nb-40">
          <mxGeometry relative="1" as="geometry">
            <mxPoint x="590" y="-430" as="targetPoint" />
            <Array as="points">
              <mxPoint x="1010" y="-835" />
              <mxPoint x="1010" y="-540" />
              <mxPoint x="610" y="-540" />
              <mxPoint x="610" y="-430" />
            </Array>
          </mxGeometry>
        </mxCell>
        <mxCell id="iQG19KCkYfJU7SetR6nb-88" style="edgeStyle=orthogonalEdgeStyle;rounded=0;orthogonalLoop=1;jettySize=auto;html=1;exitX=0.5;exitY=0.5;exitDx=0;exitDy=0;exitPerimeter=0;entryX=1;entryY=0.5;entryDx=0;entryDy=0;" edge="1" parent="1" source="iQG19KCkYfJU7SetR6nb-85" target="iQG19KCkYfJU7SetR6nb-75">
          <mxGeometry relative="1" as="geometry" />
        </mxCell>
        <mxCell id="iQG19KCkYfJU7SetR6nb-89" style="edgeStyle=orthogonalEdgeStyle;rounded=0;orthogonalLoop=1;jettySize=auto;html=1;exitX=0.5;exitY=0.5;exitDx=0;exitDy=0;exitPerimeter=0;entryX=1;entryY=0.5;entryDx=0;entryDy=0;" edge="1" parent="1" source="iQG19KCkYfJU7SetR6nb-85" target="iQG19KCkYfJU7SetR6nb-17">
          <mxGeometry relative="1" as="geometry">
            <Array as="points">
              <mxPoint x="1100" y="-95" />
              <mxPoint x="1100" y="-1010" />
            </Array>
          </mxGeometry>
        </mxCell>
        <mxCell id="iQG19KCkYfJU7SetR6nb-90" style="edgeStyle=orthogonalEdgeStyle;rounded=0;orthogonalLoop=1;jettySize=auto;html=1;exitX=0.5;exitY=0.5;exitDx=0;exitDy=0;exitPerimeter=0;entryX=1;entryY=0.5;entryDx=0;entryDy=0;" edge="1" parent="1" source="iQG19KCkYfJU7SetR6nb-85" target="iQG19KCkYfJU7SetR6nb-21">
          <mxGeometry relative="1" as="geometry">
            <Array as="points">
              <mxPoint x="780" y="-95" />
              <mxPoint x="780" y="-430" />
              <mxPoint x="580" y="-430" />
            </Array>
          </mxGeometry>
        </mxCell>
        <mxCell id="iQG19KCkYfJU7SetR6nb-85" value="Visitor" style="shape=umlActor;verticalLabelPosition=bottom;verticalAlign=top;html=1;outlineConnect=0;" vertex="1" parent="1">
          <mxGeometry x="970" y="-130" width="50" height="70" as="geometry" />
        </mxCell>
      </root>
    </mxGraphModel>
  </diagram>
</mxfile>
